
          <svg xmlns="http://www.w3.org/2000/svg" width="800" height="400" viewBox="0 0 800 400">
            <!-- https://grabient.com/HQBgrAzANKAsAcMT0cAjLAnDNYDsOsATDEUSKWicGWlBMHmtA3kS8AGyYRA/?mod=global&style=angularGradient -->
        
          <defs>
            <clipPath id="squareClip">
              <rect x="0" y="0" width="800" height="400" />
            </clipPath>
          </defs>
          <g clip-path="url(#squareClip)">
        <path d="
              M 400.000,200.000
              L 847.214,200.000
              A 447.214,447.214 0 0 1 846.398,227.006
              Z
            " fill="rgb(5, 5, 10)" fill-opacity="1.000" /><path d="
              M 400.000,200.000
              L 846.398,227.006
              A 447.214,447.214 0 0 1 843.952,253.913
              Z
            " fill="rgb(5, 6, 10)" fill-opacity="1.000" /><path d="
              M 400.000,200.000
              L 843.952,253.913
              A 447.214,447.214 0 0 1 839.887,280.623
              Z
            " fill="rgb(6, 7, 11)" fill-opacity="1.000" /><path d="
              M 400.000,200.000
              L 839.887,280.623
              A 447.214,447.214 0 0 1 834.215,307.039
              Z
            " fill="rgb(6, 7, 11)" fill-opacity="1.000" /><path d="
              M 400.000,200.000
              L 834.215,307.039
              A 447.214,447.214 0 0 1 826.959,333.065
              Z
            " fill="rgb(7, 8, 12)" fill-opacity="1.000" /><path d="
              M 400.000,200.000
              L 826.959,333.065
              A 447.214,447.214 0 0 1 818.145,358.604
              Z
            " fill="rgb(7, 8, 12)" fill-opacity="1.000" /><path d="
              M 400.000,200.000
              L 818.145,358.604
              A 447.214,447.214 0 0 1 807.804,383.565
              Z
            " fill="rgb(8, 9, 13)" fill-opacity="1.000" /><path d="
              M 400.000,200.000
              L 807.804,383.565
              A 447.214,447.214 0 0 1 795.975,407.856
              Z
            " fill="rgb(9, 9, 13)" fill-opacity="1.000" /><path d="
              M 400.000,200.000
              L 795.975,407.856
              A 447.214,447.214 0 0 1 782.701,431.388
              Z
            " fill="rgb(9, 10, 14)" fill-opacity="1.000" /><path d="
              M 400.000,200.000
              L 782.701,431.388
              A 447.214,447.214 0 0 1 768.029,454.076
              Z
            " fill="rgb(10, 10, 14)" fill-opacity="1.000" /><path d="
              M 400.000,200.000
              L 768.029,454.076
              A 447.214,447.214 0 0 1 752.015,475.837
              Z
            " fill="rgb(10, 11, 15)" fill-opacity="1.000" /><path d="
              M 400.000,200.000
              L 752.015,475.837
              A 447.214,447.214 0 0 1 734.716,496.590
              Z
            " fill="rgb(11, 12, 15)" fill-opacity="1.000" /><path d="
              M 400.000,200.000
              L 734.716,496.590
              A 447.214,447.214 0 0 1 716.195,516.261
              Z
            " fill="rgb(11, 12, 16)" fill-opacity="1.000" /><path d="
              M 400.000,200.000
              L 716.195,516.261
              A 447.214,447.214 0 0 1 696.520,534.778
              Z
            " fill="rgb(12, 13, 16)" fill-opacity="1.000" /><path d="
              M 400.000,200.000
              L 696.520,534.778
              A 447.214,447.214 0 0 1 675.763,552.073
              Z
            " fill="rgb(12, 13, 17)" fill-opacity="1.000" /><path d="
              M 400.000,200.000
              L 675.763,552.073
              A 447.214,447.214 0 0 1 653.999,568.083
              Z
            " fill="rgb(13, 14, 17)" fill-opacity="1.000" /><path d="
              M 400.000,200.000
              L 653.999,568.083
              A 447.214,447.214 0 0 1 631.308,582.749
              Z
            " fill="rgb(13, 14, 18)" fill-opacity="1.000" /><path d="
              M 400.000,200.000
              L 631.308,582.749
              A 447.214,447.214 0 0 1 607.773,596.018
              Z
            " fill="rgb(14, 15, 18)" fill-opacity="1.000" /><path d="
              M 400.000,200.000
              L 607.773,596.018
              A 447.214,447.214 0 0 1 583.480,607.842
              Z
            " fill="rgb(15, 15, 19)" fill-opacity="1.000" /><path d="
              M 400.000,200.000
              L 583.480,607.842
              A 447.214,447.214 0 0 1 558.517,618.178
              Z
            " fill="rgb(15, 16, 19)" fill-opacity="1.000" /><path d="
              M 400.000,200.000
              L 558.517,618.178
              A 447.214,447.214 0 0 1 532.975,626.987
              Z
            " fill="rgb(16, 17, 20)" fill-opacity="1.000" /><path d="
              M 400.000,200.000
              L 532.975,626.987
              A 447.214,447.214 0 0 1 506.948,634.238
              Z
            " fill="rgb(16, 17, 20)" fill-opacity="1.000" /><path d="
              M 400.000,200.000
              L 506.948,634.238
              A 447.214,447.214 0 0 1 480.531,639.904
              Z
            " fill="rgb(17, 18, 21)" fill-opacity="1.000" /><path d="
              M 400.000,200.000
              L 480.531,639.904
              A 447.214,447.214 0 0 1 453.820,643.964
              Z
            " fill="rgb(17, 18, 22)" fill-opacity="1.000" /><path d="
              M 400.000,200.000
              L 453.820,643.964
              A 447.214,447.214 0 0 1 426.912,646.404
              Z
            " fill="rgb(18, 19, 22)" fill-opacity="1.000" /><path d="
              M 400.000,200.000
              L 426.912,646.404
              A 447.214,447.214 0 0 1 399.906,647.214
              Z
            " fill="rgb(18, 19, 23)" fill-opacity="1.000" /><path d="
              M 400.000,200.000
              L 399.906,647.214
              A 447.214,447.214 0 0 1 372.901,646.392
              Z
            " fill="rgb(19, 20, 23)" fill-opacity="1.000" /><path d="
              M 400.000,200.000
              L 372.901,646.392
              A 447.214,447.214 0 0 1 345.994,643.941
              Z
            " fill="rgb(19, 20, 24)" fill-opacity="1.000" /><path d="
              M 400.000,200.000
              L 345.994,643.941
              A 447.214,447.214 0 0 1 319.285,639.870
              Z
            " fill="rgb(20, 21, 24)" fill-opacity="1.000" /><path d="
              M 400.000,200.000
              L 319.285,639.870
              A 447.214,447.214 0 0 1 292.870,634.193
              Z
            " fill="rgb(20, 21, 25)" fill-opacity="1.000" /><path d="
              M 400.000,200.000
              L 292.870,634.193
              A 447.214,447.214 0 0 1 266.846,626.931
              Z
            " fill="rgb(21, 22, 25)" fill-opacity="1.000" /><path d="
              M 400.000,200.000
              L 266.846,626.931
              A 447.214,447.214 0 0 1 241.308,618.111
              Z
            " fill="rgb(22, 23, 26)" fill-opacity="1.000" /><path d="
              M 400.000,200.000
              L 241.308,618.111
              A 447.214,447.214 0 0 1 216.349,607.766
              Z
            " fill="rgb(22, 23, 26)" fill-opacity="1.000" /><path d="
              M 400.000,200.000
              L 216.349,607.766
              A 447.214,447.214 0 0 1 192.061,595.931
              Z
            " fill="rgb(23, 24, 27)" fill-opacity="1.000" /><path d="
              M 400.000,200.000
              L 192.061,595.931
              A 447.214,447.214 0 0 1 168.531,582.652
              Z
            " fill="rgb(23, 24, 27)" fill-opacity="1.000" /><path d="
              M 400.000,200.000
              L 168.531,582.652
              A 447.214,447.214 0 0 1 145.847,567.976
              Z
            " fill="rgb(24, 25, 28)" fill-opacity="1.000" /><path d="
              M 400.000,200.000
              L 145.847,567.976
              A 447.214,447.214 0 0 1 124.090,551.957
              Z
            " fill="rgb(24, 25, 28)" fill-opacity="1.000" /><path d="
              M 400.000,200.000
              L 124.090,551.957
              A 447.214,447.214 0 0 1 103.340,534.654
              Z
            " fill="rgb(25, 26, 29)" fill-opacity="1.000" /><path d="
              M 400.000,200.000
              L 103.340,534.654
              A 447.214,447.214 0 0 1 83.673,516.129
              Z
            " fill="rgb(25, 26, 29)" fill-opacity="1.000" /><path d="
              M 400.000,200.000
              L 83.673,516.129
              A 447.214,447.214 0 0 1 65.160,496.450
              Z
            " fill="rgb(26, 27, 30)" fill-opacity="1.000" /><path d="
              M 400.000,200.000
              L 65.160,496.450
              A 447.214,447.214 0 0 1 47.869,475.689
              Z
            " fill="rgb(26, 27, 30)" fill-opacity="1.000" /><path d="
              M 400.000,200.000
              L 47.869,475.689
              A 447.214,447.214 0 0 1 31.864,453.922
              Z
            " fill="rgb(27, 28, 31)" fill-opacity="1.000" /><path d="
              M 400.000,200.000
              L 31.864,453.922
              A 447.214,447.214 0 0 1 17.203,431.228
              Z
            " fill="rgb(27, 28, 31)" fill-opacity="1.000" /><path d="
              M 400.000,200.000
              L 17.203,431.228
              A 447.214,447.214 0 0 1 3.938,407.690
              Z
            " fill="rgb(28, 29, 32)" fill-opacity="1.000" /><path d="
              M 400.000,200.000
              L 3.938,407.690
              A 447.214,447.214 0 0 1 -7.881,383.395
              Z
            " fill="rgb(28, 29, 32)" fill-opacity="1.000" /><path d="
              M 400.000,200.000
              L -7.881,383.395
              A 447.214,447.214 0 0 1 -18.211,358.429
              Z
            " fill="rgb(29, 30, 33)" fill-opacity="1.000" /><path d="
              M 400.000,200.000
              L -18.211,358.429
              A 447.214,447.214 0 0 1 -27.015,332.886
              Z
            " fill="rgb(29, 30, 33)" fill-opacity="1.000" /><path d="
              M 400.000,200.000
              L -27.015,332.886
              A 447.214,447.214 0 0 1 -34.260,306.857
              Z
            " fill="rgb(30, 31, 34)" fill-opacity="1.000" /><path d="
              M 400.000,200.000
              L -34.260,306.857
              A 447.214,447.214 0 0 1 -39.920,280.439
              Z
            " fill="rgb(30, 31, 34)" fill-opacity="1.000" /><path d="
              M 400.000,200.000
              L -39.920,280.439
              A 447.214,447.214 0 0 1 -43.975,253.727
              Z
            " fill="rgb(31, 32, 35)" fill-opacity="1.000" /><path d="
              M 400.000,200.000
              L -43.975,253.727
              A 447.214,447.214 0 0 1 -46.409,226.819
              Z
            " fill="rgb(31, 32, 35)" fill-opacity="1.000" /><path d="
              M 400.000,200.000
              L -46.409,226.819
              A 447.214,447.214 0 0 1 -47.214,199.813
              Z
            " fill="rgb(32, 33, 36)" fill-opacity="1.000" /><path d="
              M 400.000,200.000
              L -47.214,199.813
              A 447.214,447.214 0 0 1 -46.387,172.807
              Z
            " fill="rgb(32, 33, 36)" fill-opacity="1.000" /><path d="
              M 400.000,200.000
              L -46.387,172.807
              A 447.214,447.214 0 0 1 -43.930,145.901
              Z
            " fill="rgb(33, 34, 37)" fill-opacity="1.000" /><path d="
              M 400.000,200.000
              L -43.930,145.901
              A 447.214,447.214 0 0 1 -39.853,119.193
              Z
            " fill="rgb(33, 34, 37)" fill-opacity="1.000" /><path d="
              M 400.000,200.000
              L -39.853,119.193
              A 447.214,447.214 0 0 1 -34.170,92.779
              Z
            " fill="rgb(34, 35, 38)" fill-opacity="1.000" /><path d="
              M 400.000,200.000
              L -34.170,92.779
              A 447.214,447.214 0 0 1 -26.903,66.756
              Z
            " fill="rgb(34, 35, 38)" fill-opacity="1.000" /><path d="
              M 400.000,200.000
              L -26.903,66.756
              A 447.214,447.214 0 0 1 -18.078,41.220
              Z
            " fill="rgb(35, 36, 39)" fill-opacity="1.000" /><path d="
              M 400.000,200.000
              L -18.078,41.220
              A 447.214,447.214 0 0 1 -7.727,16.264
              Z
            " fill="rgb(35, 36, 39)" fill-opacity="1.000" /><path d="
              M 400.000,200.000
              L -7.727,16.264
              A 447.214,447.214 0 0 1 4.112,-8.022
              Z
            " fill="rgb(35, 36, 40)" fill-opacity="1.000" /><path d="
              M 400.000,200.000
              L 4.112,-8.022
              A 447.214,447.214 0 0 1 17.396,-31.549
              Z
            " fill="rgb(36, 37, 40)" fill-opacity="1.000" /><path d="
              M 400.000,200.000
              L 17.396,-31.549
              A 447.214,447.214 0 0 1 32.077,-54.230
              Z
            " fill="rgb(36, 37, 41)" fill-opacity="1.000" /><path d="
              M 400.000,200.000
              L 32.077,-54.230
              A 447.214,447.214 0 0 1 48.101,-75.984
              Z
            " fill="rgb(37, 38, 41)" fill-opacity="1.000" /><path d="
              M 400.000,200.000
              L 48.101,-75.984
              A 447.214,447.214 0 0 1 65.408,-96.730
              Z
            " fill="rgb(37, 38, 41)" fill-opacity="1.000" /><path d="
              M 400.000,200.000
              L 65.408,-96.730
              A 447.214,447.214 0 0 1 83.938,-116.394
              Z
            " fill="rgb(38, 39, 42)" fill-opacity="1.000" /><path d="
              M 400.000,200.000
              L 83.938,-116.394
              A 447.214,447.214 0 0 1 103.620,-134.902
              Z
            " fill="rgb(38, 39, 42)" fill-opacity="1.000" /><path d="
              M 400.000,200.000
              L 103.620,-134.902
              A 447.214,447.214 0 0 1 124.385,-152.188
              Z
            " fill="rgb(38, 39, 43)" fill-opacity="1.000" /><path d="
              M 400.000,200.000
              L 124.385,-152.188
              A 447.214,447.214 0 0 1 146.155,-168.189
              Z
            " fill="rgb(39, 40, 43)" fill-opacity="1.000" /><path d="
              M 400.000,200.000
              L 146.155,-168.189
              A 447.214,447.214 0 0 1 168.852,-182.846
              Z
            " fill="rgb(39, 40, 44)" fill-opacity="1.000" /><path d="
              M 400.000,200.000
              L 168.852,-182.846
              A 447.214,447.214 0 0 1 192.393,-196.105
              Z
            " fill="rgb(40, 41, 44)" fill-opacity="1.000" /><path d="
              M 400.000,200.000
              L 192.393,-196.105
              A 447.214,447.214 0 0 1 216.691,-207.919
              Z
            " fill="rgb(40, 41, 44)" fill-opacity="1.000" /><path d="
              M 400.000,200.000
              L 216.691,-207.919
              A 447.214,447.214 0 0 1 241.658,-218.244
              Z
            " fill="rgb(40, 41, 45)" fill-opacity="1.000" /><path d="
              M 400.000,200.000
              L 241.658,-218.244
              A 447.214,447.214 0 0 1 267.204,-227.043
              Z
            " fill="rgb(41, 42, 45)" fill-opacity="1.000" /><path d="
              M 400.000,200.000
              L 267.204,-227.043
              A 447.214,447.214 0 0 1 293.234,-234.282
              Z
            " fill="rgb(41, 42, 46)" fill-opacity="1.000" /><path d="
              M 400.000,200.000
              L 293.234,-234.282
              A 447.214,447.214 0 0 1 319.653,-239.937
              Z
            " fill="rgb(42, 42, 46)" fill-opacity="1.000" /><path d="
              M 400.000,200.000
              L 319.653,-239.937
              A 447.214,447.214 0 0 1 346.366,-243.986
              Z
            " fill="rgb(42, 43, 46)" fill-opacity="1.000" /><path d="
              M 400.000,200.000
              L 346.366,-243.986
              A 447.214,447.214 0 0 1 373.275,-246.415
              Z
            " fill="rgb(42, 43, 47)" fill-opacity="1.000" /><path d="
              M 400.000,200.000
              L 373.275,-246.415
              A 447.214,447.214 0 0 1 400.281,-247.214
              Z
            " fill="rgb(43, 44, 47)" fill-opacity="1.000" /><path d="
              M 400.000,200.000
              L 400.281,-247.214
              A 447.214,447.214 0 0 1 427.286,-246.381
              Z
            " fill="rgb(43, 44, 48)" fill-opacity="1.000" /><path d="
              M 400.000,200.000
              L 427.286,-246.381
              A 447.214,447.214 0 0 1 454.192,-243.918
              Z
            " fill="rgb(43, 44, 48)" fill-opacity="1.000" /><path d="
              M 400.000,200.000
              L 454.192,-243.918
              A 447.214,447.214 0 0 1 480.900,-239.836
              Z
            " fill="rgb(44, 45, 48)" fill-opacity="1.000" /><path d="
              M 400.000,200.000
              L 480.900,-239.836
              A 447.214,447.214 0 0 1 507.312,-234.148
              Z
            " fill="rgb(44, 45, 49)" fill-opacity="1.000" /><path d="
              M 400.000,200.000
              L 507.312,-234.148
              A 447.214,447.214 0 0 1 533.333,-226.875
              Z
            " fill="rgb(44, 45, 49)" fill-opacity="1.000" /><path d="
              M 400.000,200.000
              L 533.333,-226.875
              A 447.214,447.214 0 0 1 558.867,-218.045
              Z
            " fill="rgb(45, 45, 49)" fill-opacity="1.000" /><path d="
              M 400.000,200.000
              L 558.867,-218.045
              A 447.214,447.214 0 0 1 583.822,-207.689
              Z
            " fill="rgb(45, 46, 50)" fill-opacity="1.000" /><path d="
              M 400.000,200.000
              L 583.822,-207.689
              A 447.214,447.214 0 0 1 608.105,-195.844
              Z
            " fill="rgb(45, 46, 50)" fill-opacity="1.000" /><path d="
              M 400.000,200.000
              L 608.105,-195.844
              A 447.214,447.214 0 0 1 631.629,-182.555
              Z
            " fill="rgb(46, 46, 50)" fill-opacity="1.000" /><path d="
              M 400.000,200.000
              L 631.629,-182.555
              A 447.214,447.214 0 0 1 654.307,-167.870
              Z
            " fill="rgb(46, 47, 51)" fill-opacity="1.000" /><path d="
              M 400.000,200.000
              L 654.307,-167.870
              A 447.214,447.214 0 0 1 676.058,-151.842
              Z
            " fill="rgb(46, 47, 51)" fill-opacity="1.000" /><path d="
              M 400.000,200.000
              L 676.058,-151.842
              A 447.214,447.214 0 0 1 696.800,-134.529
              Z
            " fill="rgb(46, 47, 51)" fill-opacity="1.000" /><path d="
              M 400.000,200.000
              L 696.800,-134.529
              A 447.214,447.214 0 0 1 716.460,-115.996
              Z
            " fill="rgb(47, 47, 52)" fill-opacity="1.000" /><path d="
              M 400.000,200.000
              L 716.460,-115.996
              A 447.214,447.214 0 0 1 734.964,-96.310
              Z
            " fill="rgb(47, 48, 52)" fill-opacity="1.000" /><path d="
              M 400.000,200.000
              L 734.964,-96.310
              A 447.214,447.214 0 0 1 752.246,-75.542
              Z
            " fill="rgb(47, 48, 52)" fill-opacity="1.000" /><path d="
              M 400.000,200.000
              L 752.246,-75.542
              A 447.214,447.214 0 0 1 768.242,-53.768
              Z
            " fill="rgb(47, 48, 53)" fill-opacity="1.000" /><path d="
              M 400.000,200.000
              L 768.242,-53.768
              A 447.214,447.214 0 0 1 782.894,-31.068
              Z
            " fill="rgb(48, 48, 53)" fill-opacity="1.000" /><path d="
              M 400.000,200.000
              L 782.894,-31.068
              A 447.214,447.214 0 0 1 796.149,-7.524
              Z
            " fill="rgb(48, 49, 53)" fill-opacity="1.000" /><path d="
              M 400.000,200.000
              L 796.149,-7.524
              A 447.214,447.214 0 0 1 807.958,16.776
              Z
            " fill="rgb(48, 49, 53)" fill-opacity="1.000" /><path d="
              M 400.000,200.000
              L 807.958,16.776
              A 447.214,447.214 0 0 1 818.277,41.746
              Z
            " fill="rgb(43, 44, 48)" fill-opacity="1.000" /><path d="
              M 400.000,200.000
              L 818.277,41.746
              A 447.214,447.214 0 0 1 827.071,67.293
              Z
            " fill="rgb(37, 38, 43)" fill-opacity="1.000" /><path d="
              M 400.000,200.000
              L 827.071,67.293
              A 447.214,447.214 0 0 1 834.305,93.324
              Z
            " fill="rgb(32, 33, 37)" fill-opacity="1.000" /><path d="
              M 400.000,200.000
              L 834.305,93.324
              A 447.214,447.214 0 0 1 839.954,119.745
              Z
            " fill="rgb(26, 27, 32)" fill-opacity="1.000" /><path d="
              M 400.000,200.000
              L 839.954,119.745
              A 447.214,447.214 0 0 1 843.997,146.459
              Z
            " fill="rgb(21, 22, 26)" fill-opacity="1.000" /><path d="
              M 400.000,200.000
              L 843.997,146.459
              A 447.214,447.214 0 0 1 846.420,173.368
              Z
            " fill="rgb(16, 16, 21)" fill-opacity="1.000" /><path d="
              M 400.000,200.000
              L 846.420,173.368
              A 447.214,447.214 0 0 1 847.214,200.375
              Z
            " fill="rgb(10, 11, 15)" fill-opacity="1.000" />
          </g>
        </svg>
        